<?xml version="1.0" encoding="UTF-8" standalone="no"?>
<svg xmlns="http://www.w3.org/2000/svg" width="300" height="300" viewBox="0 0 300 300">
  <rect width="300" height="300" fill="none" />
  <circle cx="150" cy="150" r="60" fill="#00c3b2" opacity="0.2" />
  
  <!-- Community and Resources -->
  <g transform="translate(90, 80)">
    <!-- Community people -->
    <circle cx="40" cy="40" r="15" fill="#00c3b2" opacity="0.7" />
    <circle cx="80" cy="40" r="15" fill="#00c3b2" opacity="0.9" />
    <circle cx="60" cy="70" r="15" fill="#00c3b2" opacity="0.8" />
    <circle cx="30" cy="70" r="12" fill="#00c3b2" opacity="0.6" />
    <circle cx="90" cy="70" r="12" fill="#00c3b2" opacity="0.6" />
    
    <!-- Connection lines -->
    <line x1="40" y1="40" x2="80" y2="40" stroke="#00c3b2" stroke-width="2" />
    <line x1="40" y1="40" x2="60" y2="70" stroke="#00c3b2" stroke-width="2" />
    <line x1="80" y1="40" x2="60" y2="70" stroke="#00c3b2" stroke-width="2" />
    <line x1="30" y1="70" x2="60" y2="70" stroke="#00c3b2" stroke-width="2" />
    <line x1="90" y1="70" x2="60" y2="70" stroke="#00c3b2" stroke-width="2" />
    
    <!-- Sparkles -->
    <path d="M120,30 L125,40 L135,45 L125,50 L120,60 L115,50 L105,45 L115,40 Z" fill="#00c3b2" />
    <path d="M110,80 L113,86 L120,89 L113,92 L110,98 L107,92 L100,89 L107,86 Z" fill="#00c3b2" opacity="0.8" />
  </g>
  
  <text x="150" y="220" text-anchor="middle" font-family="Arial" font-size="20" fill="#00c3b2">Helpful Resources &</text>
  <text x="150" y="245" text-anchor="middle" font-family="Arial" font-size="16" fill="#00c3b2">Community</text>
</svg>